:FULLY-SPECIFIED
:FORCE-ALL-JOINTS-BE-3DOF
:DEGREES
469
root 10.8518 17.3436 29.5515 4.5485 3.73468 2.91491
lfemur -8.42994 2.94081 -28.4742
ltibia 22.6659 0 0
lfoot -17.329 3.44595 0
ltoes 1.60661 0 0
rfemur -32.6708 1.17742 15.8332
rtibia 51.3435 0 0
rfoot -19.1276 -9.77811 0
rtoes -15.9255 0 0
lowerback -5.23108 -3.79464 -3.79761
upperback -0.313502 -4.87146 1.69829
thorax 3.07766 -2.49469 3.47142
lowerneck -22.4585 -2.72877 -9.60852
upperneck 24.9336 -3.25444 9.63289
head 12.2935 -1.10442 4.75557
lclavicle 1.32159e-014 1.43638e-014 0
lhumerus -14.7202 -18.863 85.8499
lradius 27.0632 0 0
lwrist 3.01207 0 0
lhand -14.1594 -24.5932 0
lfingers 7.12502 0 0
lthumb 11.9754 5.04422 0
rclavicle 1.32159e-014 1.43638e-014 0
rhumerus -46.2189 10.2877 -86.8711
rradius 37.9559 0 0
rwrist -18.5884 0 0
rhand -37.4974 -16.0795 0
rfingers 7.12502 0 0
rthumb -10.554 -45.7797 0
470
root 10.8462 17.3328 29.6901 4.57463 3.76917 3.00731
lfemur -7.50085 2.88934 -28.4865
ltibia 21.8564 0 0
lfoot -17.2943 3.45514 0
ltoes 1.47303 0 0
rfemur -33.0258 1.54774 15.5653
rtibia 50.4622 0 0
rfoot -19.3219 -9.90322 0
rtoes -16.2957 0 0
lowerback -5.32587 -3.84442 -3.88025
upperback -0.25674 -4.92524 1.67409
thorax 3.20183 -2.52631 3.47564
lowerneck -22.5021 -2.72454 -9.60102
upperneck 24.8962 -3.25898 9.68085
head 12.289 -1.09827 4.77127
lclavicle 1.38941e-014 1.38508e-014 0
lhumerus -14.6438 -19.1281 85.8557
lradius 27.3636 0 0
lwrist 3.17173 0 0
lhand -14.1484 -24.641 0
lfingers 7.12502 0 0
lthumb 11.9861 4.99574 0
rclavicle 1.38941e-014 1.38508e-014 0
rhumerus -46.2907 10.1273 -86.7907
rradius 37.806 0 0
rwrist -18.5495 0 0
rhand -37.221 -16.2455 0
rfingers 7.12502 0 0
rthumb -10.2871 -45.9548 0
471
root 10.8406 17.3221 29.8287 4.60075 3.80366 3.09972
lfemur -6.57176 2.83787 -28.4989
ltibia 21.0469 0 0
lfoot -17.2595 3.46432 0
ltoes 1.33945 0 0
rfemur -33.3808 1.91805 15.2974
rtibia 49.5809 0 0
rfoot -19.5161 -10.0283 0
rtoes -16.6659 0 0
lowerback -5.42067 -3.89419 -3.96288
upperback -0.199979 -4.97903 1.64988
thorax 3.326 -2.55793 3.47986
lowerneck -22.5456 -2.72031 -9.59352
upperneck 24.8587 -3.26352 9.72881
head 12.2844 -1.09212 4.78696
lclavicle 1.45722e-014 1.33378e-014 0
lhumerus -14.5674 -19.3933 85.8616
lradius 27.664 0 0
lwrist 3.3314 0 0
lhand -14.1373 -24.6889 0
lfingers 7.12502 0 0
lthumb 11.9967 4.94726 0
rclavicle 1.45722e-014 1.33378e-014 0
rhumerus -46.3625 9.96679 -86.7102
rradius 37.656 0 0
rwrist -18.5106 0 0
rhand -36.9445 -16.4114 0
rfingers 7.12502 0 0
rthumb -10.0203 -46.13 0
472
root 10.8351 17.3113 29.9673 4.62687 3.83815 3.19213
lfemur -5.64268 2.78641 -28.5112
ltibia 20.2374 0 0
lfoot -17.2248 3.47351 0
ltoes 1.20587 0 0
rfemur -33.7358 2.28836 15.0295
rtibia 48.6995 0 0
rfoot -19.7104 -10.1534 0
rtoes -17.036 0 0
lowerback -5.51546 -3.94396 -4.04552
upperback -0.143218 -5.03282 1.62568
thorax 3.45016 -2.58956 3.48408
lowerneck -22.5892 -2.71607 -9.58602
upperneck 24.8212 -3.26806 9.77678
head 12.2798 -1.08597 4.80265
lclavicle 1.52503e-014 1.28248e-014 0
lhumerus -14.491 -19.6585 85.8674
lradius 27.9643 0 0
lwrist 3.49106 0 0
lhand -14.1263 -24.7367 0
lfingers 7.12502 0 0
lthumb 12.0074 4.89878 0
rclavicle 1.52503e-014 1.28248e-014 0
rhumerus -46.4343 9.80633 -86.6298
rradius 37.5061 0 0
rwrist -18.4717 0 0
rhand -36.668 -16.5774 0
rfingers 7.12502 0 0
rthumb -9.7534 -46.3051 0
473
root 10.8295 17.3006 30.1059 4.65299 3.87263 3.28454
lfemur -4.71359 2.73494 -28.5235
ltibia 19.4279 0 0
lfoot -17.1901 3.48269 0
ltoes 1.07229 0 0
rfemur -34.0908 2.65868 14.7616
rtibia 47.8182 0 0
rfoot -19.9046 -10.2785 0
rtoes -17.4062 0 0
lowerback -5.61025 -3.99374 -4.12815
upperback -0.0864571 -5.08661 1.60148
thorax 3.57433 -2.62118 3.4883
lowerneck -22.6327 -2.71184 -9.57853
upperneck 24.7837 -3.2726 9.82474
head 12.2752 -1.07982 4.81835
lclavicle 1.59284e-014 1.23118e-014 0
lhumerus -14.4146 -19.9236 85.8733
lradius 28.2647 0 0
lwrist 3.65072 0 0
lhand -14.1153 -24.7846 0
lfingers 7.12502 0 0
lthumb 12.018 4.8503 0
rclavicle 1.59284e-014 1.23118e-014 0
rhumerus -46.5061 9.64587 -86.5493
rradius 37.3562 0 0
rwrist -18.4327 0 0
rhand -36.3915 -16.7434 0
rfingers 7.12502 0 0
rthumb -9.48653 -46.4803 0
474
root 10.8239 17.2899 30.2444 4.67911 3.90712 3.37695
lfemur -3.7845 2.68347 -28.5359
ltibia 18.6184 0 0
lfoot -17.1553 3.49188 0
ltoes 0.938705 0 0
rfemur -34.4458 3.02899 14.4937
rtibia 46.9369 0 0
rfoot -20.0989 -10.4036 0
rtoes -17.7764 0 0
lowerback -5.70505 -4.04351 -4.21079
upperback -0.029696 -5.1404 1.57727
thorax 3.6985 -2.6528 3.49251
lowerneck -22.6762 -2.70761 -9.57103
upperneck 24.7462 -3.27714 9.8727
head 12.2706 -1.07367 4.83404
lclavicle 1.66065e-014 1.17989e-014 0
lhumerus -14.3381 -20.1888 85.8792
lradius 28.5651 0 0
lwrist 3.81039 0 0
lhand -14.1042 -24.8324 0
lfingers 7.12502 0 0
lthumb 12.0286 4.80183 0
rclavicle 1.66065e-014 1.17989e-014 0
rhumerus -46.5779 9.4854 -86.4689
rradius 37.2062 0 0
rwrist -18.3938 0 0
rhand -36.115 -16.9093 0
rfingers 7.12502 0 0
rthumb -9.21967 -46.6555 0
475
root 10.8183 17.2791 30.383 4.70523 3.94161 3.46936
lfemur -2.85542 2.632 -28.5482
ltibia 17.8089 0 0
lfoot -17.1206 3.50106 0
ltoes 0.805124 0 0
rfemur -34.8008 3.3993 14.2258
rtibia 46.0555 0 0
rfoot -20.2931 -10.5288 0
rtoes -18.1466 0 0
lowerback -5.79984 -4.09328 -4.29342
upperback 0.0270652 -5.19419 1.55307
thorax 3.82266 -2.68442 3.49673
lowerneck -22.7198 -2.70337 -9.56353
upperneck 24.7087 -3.28168 9.92066
head 12.266 -1.06752 4.84973
lclavicle 1.72846e-014 1.12859e-014 0
lhumerus -14.2617 -20.454 85.885
lradius 28.8655 0 0
lwrist 3.97005 0 0
lhand -14.0932 -24.8803 0
lfingers 7.12502 0 0
lthumb 12.0393 4.75335 0
rclavicle 1.72846e-014 1.12859e-014 0
rhumerus -46.6497 9.32494 -86.3884
rradius 37.0563 0 0
rwrist -18.3549 0 0
rhand -35.8385 -17.0753 0
rfingers 7.12502 0 0
rthumb -8.9528 -46.8306 0
476
root 10.8127 17.2684 30.5216 4.73136 3.9761 3.56177
lfemur -1.92633 2.58054 -28.5605
ltibia 16.9994 0 0
lfoot -17.0859 3.51025 0
ltoes 0.671544 0 0
rfemur -35.1558 3.76962 13.9579
rtibia 45.1742 0 0
rfoot -20.4874 -10.6539 0
rtoes -18.5168 0 0
lowerback -5.89463 -4.14306 -4.37606
upperback 0.0838263 -5.24797 1.52886
thorax 3.94683 -2.71605 3.50095
lowerneck -22.7633 -2.69914 -9.55603
upperneck 24.6712 -3.28622 9.96862
head 12.2614 -1.06137 4.86543
lclavicle 1.79627e-014 1.07729e-014 0
lhumerus -14.1853 -20.7191 85.8909
lradius 29.1659 0 0
lwrist 4.12972 0 0
lhand -14.0821 -24.9281 0
lfingers 7.12502 0 0
lthumb 12.0499 4.70487 0
rclavicle 1.79627e-014 1.07729e-014 0
rhumerus -46.7215 9.16448 -86.308
rradius 36.9063 0 0
rwrist -18.316 0 0
rhand -35.5621 -17.2413 0
rfingers 7.12502 0 0
rthumb -8.68594 -47.0058 0
477
root 10.8071 17.2576 30.6602 4.75748 4.01059 3.65418
lfemur -0.997242 2.52907 -28.5729
ltibia 16.1899 0 0
lfoot -17.0511 3.51943 0
ltoes 0.537963 0 0
rfemur -35.5108 4.13993 13.69
rtibia 44.2929 0 0
rfoot -20.6816 -10.779 0
rtoes -18.887 0 0
lowerback -5.98943 -4.19283 -4.45869
upperback 0.140587 -5.30176 1.50466
thorax 4.071 -2.74767 3.50517
lowerneck -22.8069 -2.69491 -9.54853
upperneck 24.6337 -3.29076 10.0166
head 12.2568 -1.05522 4.88112
lclavicle 1.86408e-014 1.02599e-014 0
lhumerus -14.1089 -20.9843 85.8967
lradius 29.4663 0 0
lwrist 4.28938 0 0
lhand -14.0711 -24.976 0
lfingers 7.12502 0 0
lthumb 12.0606 4.65639 0
rclavicle 1.86408e-014 1.02599e-014 0
rhumerus -46.7933 9.00402 -86.2275
rradius 36.7564 0 0
rwrist -18.2771 0 0
rhand -35.2856 -17.4072 0
rfingers 7.12502 0 0
rthumb -8.41907 -47.1809 0
478
root 10.8015 17.2469 30.7988 4.7836 4.04507 3.74658
lfemur -0.0681548 2.4776 -28.5852
ltibia 15.3804 0 0
lfoot -17.0164 3.52861 0
ltoes 0.404382 0 0
rfemur -35.8658 4.51025 13.4221
rtibia 43.4116 0 0
rfoot -20.8758 -10.9041 0
rtoes -19.2572 0 0
lowerback -6.08422 -4.24261 -4.54132
upperback 0.197349 -5.35555 1.48046
thorax 4.19517 -2.77929 3.50939
lowerneck -22.8504 -2.69068 -9.54104
upperneck 24.5963 -3.2953 10.0645
head 12.2523 -1.04907 4.89682
lclavicle 1.9319e-014 9.74688e-015 0
lhumerus -14.0325 -21.2494 85.9026
lradius 29.7667 0 0
lwrist 4.44904 0 0
lhand -14.0601 -25.0238 0
lfingers 7.12502 0 0
lthumb 12.0712 4.60791 0
rclavicle 1.9319e-014 9.74688e-015 0
rhumerus -46.8651 8.84356 -86.1471
rradius 36.6065 0 0
rwrist -18.2381 0 0
rhand -35.0091 -17.5732 0
rfingers 7.12502 0 0
rthumb -8.1522 -47.3561 0
